<svg width="567" height="567" viewBox="0 0 567 567" fill="none" xmlns="http://www.w3.org/2000/svg"> <path d="M418.9 476.7C328.3 476.7 237.8 476.7 147.2 476.7C145.9 476.4 144.7 476.2 143.4 475.9C121.2 470.3 104.9 457.7 96.3 436.1C94.4 431.3 93.3 426.2 91.8 421.3C91.8 330.5 91.8 239.7 91.8 148.8C92 148.4 92.4 148 92.5 147.6C95.7 126.6 107.3 111.4 125.4 100.9C135.2 95.2 146.1 93.4 157.3 93.4C235.3 93.3 313.2 93.3 391.2 93.4C399.9 93.4 408.6 93.7 417.3 94.1C431.3 94.8 443.4 100.5 453.7 109.7C468.4 122.8 475.1 139.7 475.1 159.3C475.2 242 475.2 324.7 475.1 407.4C475.1 413.2 474.6 419 473.6 424.7C470.1 444.1 459.3 458.6 442.3 468.4C434.8 472.6 426.8 474.6 418.9 476.7ZM196 399.6C196.2 399.8 196.4 400 196.6 400.2C197.8 400.2 199.1 400.3 200.3 400.3C232.7 400.3 265.1 400.3 297.6 400.3C302.8 400.3 308 399.9 313.2 399.6C327.1 398.9 340.1 394.8 352.3 388.3C370.9 378.3 379.6 362.1 380.7 341.5C381.2 332.1 380.1 322.9 377.1 313.9C373.2 302.1 366.5 292.5 355.4 286.6C350.2 283.9 344.6 282.1 339.2 279.9C339.3 279.8 339.3 279.6 339.4 279.6C341.2 278.6 343.1 277.7 344.9 276.7C354.9 271 362.8 263.4 367.1 252.5C371.3 241.8 371.1 230.7 369.5 219.6C367.2 203.8 358.5 192.8 344.5 185.4C331.2 178.4 316.9 176.9 302.4 176.7C268.4 176.4 234.3 176.6 200.3 176.6C199 176.6 197.6 176.6 195.9 176.6C195.9 178.5 195.9 179.9 195.9 181.4C195.9 252.7 195.9 324.1 195.9 395.4C195.9 396.8 195.9 398.2 196 399.6Z" fill="#3430FA"/> <path d="M235.2 298.5C237.2 298.5 239 298.5 240.7 298.5C262.1 298.5 283.6 298.3 305 298.6C313.2 298.7 321.3 300 328.4 304.9C336 310.2 340.2 317.4 341.1 326.7C342 335.3 341.4 343.5 337.5 351.4C333.4 359.8 326.3 364.3 317.7 366.6C313.4 367.8 308.7 368.2 304.2 368.2C282.1 368.4 260.1 368.3 238 368.3C237.1 368.3 236.3 368.2 235.2 368.1C235.2 345 235.2 322 235.2 298.5Z" fill="#3430FA"/> <path d="M235.1 270.3C235.1 249.6 235.1 229.4 235.1 209C236.1 208.9 237.1 208.7 238 208.7C258.7 208.7 279.4 208.5 300.1 208.8C307 208.9 313.9 209.8 320.2 213.6C325.7 216.9 328.9 221.5 330.1 227.5C332 236.9 332.7 246.3 327.9 255.2C323.6 263.3 316.4 267.5 307.8 269.3C303.9 270.1 299.7 270.2 295.7 270.3C277 270.4 258.3 270.3 239.6 270.3C238.2 270.3 236.9 270.3 235.1 270.3Z" fill="#3430FA"/> </svg>