<svg width="272" height="309" viewBox="0 0 272 309" fill="none"
  xmlns="http://www.w3.org/2000/svg">
  <path d="M134.1 308.2C127.7 306.2 121.2 304.1 114.8 302.3C98.7999 297.8 82.7 293.5 66.6 289.1C53.5 285.5 40.4 281.9 27.3 278.3C25.5 277.8 24.9 277 24.7 275C23.9 264.8 22.8 254.7 21.8 244.5C21.2 238.4 20.8 232.2 20.3 226.1C19.3 215.5 18.2999 204.8 17.3999 194.2C16.7999 187.3 16.5 180.4 15.8 173.6C15.2 166.6 14.3 159.7 13.6 152.7C13.3 149.5 13 146.3 12.8 143.1C12 132.9 11.4 122.7 10.5 112.5C9.59995 101.7 8.59996 91 7.59996 80.2C6.59996 68.9 5.59996 57.7 4.59996 46.4C3.59996 35.1 2.59996 23.9 1.59996 12.6C1.19996 8.70001 0.699951 4.80001 0.199951 0.600006C90.7 0.600006 181.1 0.600006 271.8 0.600006C271.6 3.70001 271.4 6.9 271.1 10C270.1 19.6 269.1 29.3 268.2 38.9C267.6 45.8 267.2 52.7 266.6 59.6C266 66.8 265.1 74 264.4 81.2C263.8 87.3 263.4 93.5 262.8 99.6C262.1 107.6 261.3 115.5 260.6 123.5C260 130.2 259.7 137 259 143.8C258.1 153.5 257 163.1 256.1 172.7C255.5 179.2 255.1 185.7 254.5 192.2C253.8 199.7 253 207.1 252.3 214.6C251.7 221.1 251.3 227.6 250.7 234.1C250 241.8 249.2 249.5 248.5 257.2C248 263.2 247.6 269.2 246.9 275.2C246.8 276.3 245.5 277.8 244.5 278.1C209.8 287.7 175.1 297.3 140.4 306.8C139.4 307.1 138.5 307.7 137.6 308.2C136.6 308.2 135.4 308.2 134.1 308.2ZM136.4 125.5C134.9 125.6 133.4 125.7 131.9 125.7C108.3 125.7 84.8 125.7 61.2 125.7C59.9 125.7 58.4999 125.7 56.8999 125.7C57.9999 137.3 59 148.3 60.1 159.7C61.9 159.7 63.2 159.7 64.6 159.7C76.8 159.7 89 159.7 101.3 159.7C113 159.8 124.7 159.9 136.4 160C136.4 177.9 136.4 195.8 136.4 213.8C135.5 213.8 134.6 214 133.8 213.8C123.5 210.9 113.2 208 102.9 205.1C97.6999 203.6 97.5999 203.3 97.3999 198C96.9999 191 96.3 184.1 95.8 176.9C84.4 176.9 73.1 176.9 61.7 176.9C61.9 179.9 62.1 182.7 62.3 185.5C62.8 192 63.2999 198.5 63.8999 205C64.5999 212.2 65.6 219.4 66 226.6C66.2 229.3 67 230.5 69.6 231.2C84.4 235.2 99.0999 239.4 113.9 243.4C121.4 245.5 129 247.3 136.5 249.2C136.5 260.8 136.5 272.3 136.5 284.4C138.1 284.1 139.2 283.9 140.2 283.6C154.1 279.8 168 276 181.8 272.2C195.6 268.4 209.3 264.6 223 260.8C224.9 260.3 226.2 259.6 226.4 257.1C226.6 252.4 227.4 247.8 227.8 243.1C228.4 236.4 228.8 229.8 229.4 223.1C230.3 212.7 231.3 202.4 232.3 192C232.9 185.6 233.4 179.2 233.9 172.7C234.8 162.6 235.8 152.5 236.7 142.4C237.3 135.9 237.7 129.3 238.3 122.8C239.2 113.1 240.3 103.4 241.2 93.6C242.1 83.7 242.7 73.8 243.5 64C244.6 51.6 245.9 39.1 247.2 26.7C247.5 24.1 246.7 23 243.8 23C209.1 23.1 174.5 23.1 139.8 23C137.2 23 136.3 23.7 136.4 26.4C136.5 36.5 136.5 46.6 136.5 56.7C135 56.8 133.5 56.9 132 56.9C106.4 56.9 80.9 56.9 55.3 56.9C54 56.9 52.6999 56.9 50.8999 56.9C51.9999 68.7 53 79.8 54 91C75.3 91 95.8 91 116.2 91C122.9 91 129.7 91.1 136.4 91.2C136.4 102.7 136.4 114.1 136.4 125.5Z" fill="#3430FA"/>
  <path d="M136.4 56.7C136.4 46.6 136.5 36.5 136.3 26.4C136.3 23.8 137.1 23 139.7 23C174.4 23.1 209 23.1 243.7 23C246.7 23 247.4 24.1 247.1 26.7C245.8 39.1 244.5 51.6 243.4 64C242.5 73.9 241.9 83.8 241.1 93.6C240.2 103.3 239.1 113.1 238.2 122.8C237.6 129.3 237.2 135.9 236.6 142.4C235.7 152.5 234.7 162.6 233.8 172.7C233.2 179.1 232.7 185.5 232.2 192C231.3 202.4 230.3 212.7 229.3 223.1C228.7 229.8 228.3 236.4 227.7 243.1C227.3 247.8 226.6 252.4 226.3 257.1C226.2 259.6 224.9 260.3 222.9 260.8C209.1 264.6 195.4 268.4 181.7 272.2C167.8 276 154 279.8 140.1 283.6C139.1 283.9 138 284.1 136.4 284.4C136.4 272.3 136.4 260.8 136.4 249.2L136.3 248.9C137 248.8 137.8 248.9 138.5 248.7C148 246.1 157.5 243.5 167.1 240.8C180 237.2 192.9 233.6 205.8 230C206.1 225.6 206.4 221.4 206.8 217.2C207.3 210.8 207.8 204.4 208.3 198.1C209 190.5 209.8 183 210.5 175.4C211.1 169 211.5 162.6 212.1 156.3C212.8 148.6 213.6 140.9 214.3 133.2C214.9 127 215.3 120.7 215.8 114.4C216.8 103.9 217.7 93.4 218.8 82.9C219.2 78.9 219.8 74.9 220.2 70.9C220.6 66.3 220.8 61.7 221.1 56.9C214.8 56.9 209.1 56.9 203.3 56.9C181 56.9 158.7 57 136.4 57.1C136.4 56.9 136.4 56.8 136.4 56.7Z" fill="#0065F4"/>
  <path d="M136.4 249.2C128.9 247.3 121.3 245.4 113.8 243.4C98.9998 239.4 84.2998 235.2 69.4998 231.2C66.9998 230.5 66.0998 229.3 65.8998 226.6C65.4998 219.4 64.4999 212.2 63.7999 205C63.1999 198.5 62.7998 192 62.1998 185.5C61.9998 182.7 61.7999 179.9 61.5999 176.9C73.0999 176.9 84.2998 176.9 95.6998 176.9C96.2998 184.1 96.9999 191 97.2999 198C97.5998 203.4 97.5998 203.6 102.8 205.1C113.1 208 123.4 210.9 133.7 213.8C134.5 214 135.4 213.8 136.3 213.8L136.2 214.1C136.2 225.7 136.2 237.4 136.2 249L136.4 249.2Z" fill="#EBEBEB"/>
  <path d="M136.4 91.2C129.7 91.1 122.9 91 116.2 91C95.7999 91 75.2999 91 53.9999 91C52.9999 79.8 51.9999 68.7 50.8999 56.9C52.6999 56.9 53.9999 56.9 55.2999 56.9C80.8999 56.9 106.4 56.9 132 56.9C133.5 56.9 135 56.8 136.5 56.7C136.5 56.8 136.5 57 136.4 57.1C136.4 68.4 136.4 79.6 136.4 90.9V91.2Z" fill="#EBEBEB"/>
  <path d="M136.4 160C124.7 159.9 113 159.7 101.3 159.7C89.0999 159.6 76.8999 159.7 64.5999 159.7C63.2999 159.7 61.8999 159.7 60.0999 159.7C58.9999 148.3 57.9999 137.2 56.8999 125.7C58.4999 125.7 59.8999 125.7 61.1999 125.7C84.7999 125.7 108.3 125.7 131.9 125.7C133.4 125.7 134.9 125.6 136.4 125.5L136.3 125.8C136.3 137.1 136.3 148.3 136.3 159.6C136.4 159.7 136.4 159.9 136.4 160Z" fill="#EBEBEB"/>
  <path d="M136.4 213.8C136.4 195.9 136.4 178 136.4 160C136.4 159.8 136.4 159.7 136.3 159.6C150 159.6 163.8 159.6 177.9 159.6C176.5 175 175.2 189.5 173.8 203.9C161 207.4 148.7 210.7 136.3 214.1L136.4 213.8Z" fill="#0065F4"/>
  <path d="M136.4 125.5C136.4 114.1 136.4 102.7 136.4 91.2L136.3 90.8C151.9 90.8 167.6 90.8 183.7 90.8C182.7 102.7 181.8 114 180.9 125.7C165.9 125.7 151.1 125.7 136.3 125.7L136.4 125.5Z" fill="#0065F4"/>
</svg>