<svg width="69" height="71" viewBox="0 0 69 71" fill="none"
  xmlns="http://www.w3.org/2000/svg">
  <path d="M0.00361446 36.5178V35.3757C0.196988 35.317 0.224096 35.2455 0.104819 35.1007C0.0903614 35.0714 0.0759036 35.0402 0.0614458 35.0109C0.0957831 35.0017 0.128313 34.9926 0.162651 34.9834C0.151807 34.9614 0.140964 34.9376 0.13012 34.9156C0.135542 34.8716 0.140964 34.8257 0.146386 34.7817C0.157229 34.7359 0.168072 34.6882 0.178916 34.6424C0.213253 34.5214 0.249398 34.3986 0.283735 34.2776C0.294578 34.2611 0.305422 34.2446 0.316265 34.2281C0.31988 34.1987 0.323494 34.1694 0.327108 34.1419C0.339759 34.1272 0.35241 34.1144 0.36506 34.0997C0.596386 33.5314 0.963253 33.0566 1.38434 32.6276C8.15783 25.7528 14.9331 18.8817 21.7084 12.0106C21.7898 11.9281 21.8837 11.8566 21.9904 11.7631C22.1675 11.9483 22.3301 12.1243 22.4982 12.2948C24.6958 14.5259 26.8952 16.7551 29.0928 18.9844C29.3241 19.219 29.5536 19.4592 29.7831 19.6975C29.7867 19.7269 29.7922 19.758 29.7958 19.7874C29.7741 19.8314 29.7542 19.8754 29.7325 19.9194C29.691 20.033 29.644 20.1448 29.606 20.2603C29.3042 21.2045 29.2753 22.1688 29.5392 23.1111C30.0036 24.7684 30.9651 26.0223 32.5753 26.697C32.6096 26.7116 32.6295 26.7941 32.6313 26.8473C32.6404 27.1498 32.644 27.4523 32.644 27.7566C32.644 32.2335 32.644 36.7103 32.644 41.1872C32.644 42.6685 32.6295 44.1479 32.6295 45.6292C32.6295 45.8382 32.6693 46.0472 32.4018 46.1224C31.941 46.3479 31.491 46.5935 31.1349 46.9785C30.9849 47.1325 30.8367 47.2883 30.6867 47.4423C30.4825 47.7155 30.2422 47.9703 30.0795 48.2673C29.7867 48.8008 29.5789 49.3709 29.4651 49.9796C29.353 50.5699 29.353 51.1529 29.438 51.7432C29.4506 51.789 29.4651 51.8349 29.4777 51.8807C29.5735 52.2345 29.6693 52.5865 29.7651 52.9403C29.7849 52.9843 29.8066 53.0283 29.8265 53.0723C29.8392 53.1035 29.8536 53.1347 29.8663 53.1658C29.897 53.23 29.9295 53.2942 29.9602 53.3583C30.0235 53.4757 30.0886 53.593 30.1518 53.7103C30.1735 53.758 30.1861 53.8111 30.2169 53.8496C30.3723 54.0476 30.5295 54.2456 30.6922 54.4363C30.8349 54.605 30.9886 54.7663 31.1367 54.9294C31.162 54.9496 31.1874 54.9698 31.2127 54.9899C31.4277 55.1494 31.6428 55.3089 31.8578 55.4703C31.8669 55.4813 31.8777 55.4886 31.8904 55.4923C32.3151 55.8039 32.794 55.9872 33.2946 56.1247C33.5512 56.1706 33.8096 56.2164 34.0663 56.2622L34.0861 56.2696H34.1078C34.1259 56.2696 34.1422 56.2696 34.1602 56.2696C34.9247 56.2934 35.6855 56.2879 36.4139 55.9982C36.4283 55.9854 36.441 55.9726 36.4554 55.9597C36.8277 55.7746 37.2018 55.5894 37.5741 55.4024L37.6265 55.3694C37.6554 55.3493 37.6843 55.3291 37.7133 55.3089C37.7295 55.2979 37.7458 55.2869 37.762 55.2759C38.1271 54.9093 38.5139 54.5628 38.8518 54.1723C39.197 53.7726 39.4663 53.3162 39.6108 52.7955C39.6235 52.7643 39.6361 52.735 39.6488 52.7038C39.712 52.416 39.7753 52.1282 39.8367 51.8385C39.853 51.7304 39.8675 51.624 39.8837 51.5159C39.8964 51.4389 39.909 51.3637 39.9199 51.2867L39.8729 50.3261C39.8729 50.2803 39.8765 50.2344 39.8783 50.1886C39.862 50.0823 39.8458 49.9759 39.8295 49.8678C39.788 49.7284 39.7446 49.5909 39.703 49.4516C39.6705 49.3471 39.6361 49.2408 39.6036 49.1363L39.5693 48.997L39.4355 48.6761C39.3813 48.5643 39.3253 48.4525 39.2711 48.3406L39.2602 48.348L39.2693 48.3388C39.0976 48.0822 38.9241 47.8255 38.7524 47.567L38.6874 47.4863C38.6458 47.4368 38.6024 47.3873 38.5608 47.3378C38.4452 47.2205 38.3295 47.105 38.2139 46.9877C38.203 46.9767 38.1922 46.9657 38.1813 46.9529C38.0169 46.8245 37.8524 46.6962 37.6861 46.5679C37.641 46.5385 37.5958 46.5074 37.5488 46.478C37.4096 46.3827 37.2705 46.2892 37.1313 46.1939C37.1151 46.1114 37.1855 45.9849 37.0229 45.9794C37.0229 45.9501 37.0229 45.9189 37.0229 45.8896C37.0572 45.8694 37.0916 45.8511 37.1259 45.8309C37.0916 45.8052 37.0554 45.7777 37.0211 45.7521C37.0175 45.6989 37.0102 45.6457 37.0102 45.5944C37.0102 43.1525 37.0102 40.7087 37.0102 38.2668C37.0102 35.1081 37.0084 31.9512 37.0066 28.7924V28.4753C37.0066 28.2608 37.0066 28.0463 37.0084 27.8336C37.0084 27.6961 37.0084 27.5586 37.0084 27.4193C37.0048 27.39 36.9994 27.3606 36.9958 27.3313C37.003 27.3166 37.0084 27.3001 37.0157 27.2855C37.0717 27.2855 37.1277 27.2855 37.1819 27.2836C37.1964 27.2983 37.209 27.313 37.2235 27.3258C37.2361 27.4376 37.2705 27.5275 37.4078 27.511C37.4422 27.5403 37.4765 27.566 37.509 27.5989C39.5042 29.6229 41.4994 31.645 43.4928 33.6689C43.5235 33.7001 43.5506 33.7368 43.5795 33.7716L43.7187 33.9128C43.8072 34.0026 43.8976 34.0942 43.9861 34.1841L44.0765 34.4664C43.9717 34.9082 43.8506 35.3464 43.7675 35.7919C43.7187 36.0467 43.7078 36.3143 43.7241 36.5747C43.7422 36.8753 43.8072 37.1742 43.8524 37.4748C43.8687 37.5225 43.8849 37.5701 43.9012 37.6196C43.9753 37.8653 44.0313 38.1165 44.1235 38.353C44.5102 39.3393 45.1265 40.1624 45.9904 40.7545C47.0657 41.4915 48.2476 41.8655 49.5777 41.6968C50.2988 41.6052 50.9602 41.3852 51.5946 41.046C51.6108 41.0369 51.6271 41.0259 51.6434 41.0167C51.7012 40.98 51.759 40.9452 51.8187 40.9085C51.8349 40.8975 51.853 40.8884 51.8693 40.8774C51.8982 40.8572 51.9271 40.837 51.9578 40.815C51.9741 40.8059 51.9886 40.7949 52.0048 40.7857C52.0319 40.7655 52.0608 40.7454 52.088 40.7252C52.106 40.7142 52.1223 40.7014 52.1404 40.6904C52.5054 40.3237 52.8994 39.9809 53.2301 39.5849C53.5861 39.1596 53.8464 38.6628 54.0054 38.1201C54.0181 38.0926 54.0307 38.067 54.0434 38.0395C54.0488 38.0046 54.0488 37.968 54.0614 37.935C54.2367 37.4565 54.2892 36.9578 54.3018 36.4537C54.3072 36.23 54.2982 36.0027 54.2548 35.7827C54.1645 35.3134 54.0994 34.8294 53.9277 34.3894C53.7542 33.9458 53.4632 33.5479 53.2247 33.1318L53.1 33.0438C53.0548 32.9649 53.0114 32.888 52.9663 32.8091C52.847 32.6863 52.7295 32.5635 52.6102 32.4425C52.5578 32.3948 52.5054 32.3471 52.4512 32.2995C52.4367 32.2885 52.4241 32.2793 52.4096 32.2683C52.2452 32.1455 52.0807 32.0226 51.9163 31.8998C51.8566 31.8595 51.7952 31.8192 51.7355 31.7807C51.4048 31.6267 51.0741 31.4727 50.7452 31.3187C50.6548 31.2985 50.5663 31.2783 50.4759 31.2582C50.4 31.2307 50.3241 31.205 50.2482 31.1775C49.9934 31.128 49.7386 31.0785 49.4837 31.029C49.453 31.0327 49.4223 31.0382 49.3916 31.0418C49.2723 31.0418 49.1512 31.0418 49.0319 31.0418C48.9271 31.0418 48.8223 31.0418 48.7157 31.04C48.656 31.0418 48.5946 31.0455 48.5349 31.0473C48.403 31.0602 48.2693 31.0712 48.1373 31.084C48.0904 31.1115 48.0416 31.1372 47.9946 31.1647C47.9042 31.1793 47.8139 31.1958 47.7235 31.2105C47.3548 31.3627 47.1289 31.1573 46.8849 30.9062C45.2657 29.2452 43.6337 27.599 42.0054 25.9472C41.2681 25.1992 40.5289 24.453 39.7952 23.7014C39.7337 23.6391 39.6669 23.5401 39.6723 23.4631C39.6831 23.3128 39.7446 23.1679 39.7861 23.0194C39.7988 22.9644 39.8133 22.9076 39.8259 22.8526C39.8602 22.4713 39.9036 22.0918 39.9235 21.7105C39.9325 21.5161 39.9 21.32 39.8819 21.1257C39.8331 20.5757 39.694 20.0495 39.4446 19.5564C39.2404 19.0614 38.9602 18.6159 38.5898 18.2291C38.4361 18.0769 38.2825 17.9248 38.1289 17.7708C37.9771 17.6516 37.8271 17.5306 37.6753 17.4114C37.6464 17.3931 37.6175 17.3729 37.5904 17.3546L37.1386 17.0814C37.0627 17.0411 36.9849 17.0026 36.909 16.9623L36.7753 16.9073C36.6849 16.8761 36.5964 16.845 36.506 16.8138C36.4319 16.779 36.3578 16.7423 36.2855 16.7075C36.1627 16.6726 36.0416 16.636 35.9187 16.6011C35.7994 16.5791 35.6801 16.5571 35.5608 16.5351C35.4163 16.5131 35.2717 16.4691 35.1289 16.4728C34.7006 16.4856 34.2723 16.515 33.844 16.5388C33.7699 16.5443 33.6958 16.5498 33.6199 16.5553L33.4392 16.603C33.2566 16.6305 33.0741 16.658 32.8916 16.6836C32.8464 16.6378 32.8012 16.592 32.756 16.5461C30.1627 13.9319 27.5693 11.3195 24.9669 8.69604C25.0807 8.58971 25.1584 8.51821 25.2343 8.44671C25.2651 8.41554 25.294 8.38621 25.3247 8.35505C25.3428 8.33121 25.3572 8.30555 25.3771 8.28355C27.3777 6.25411 29.3783 4.22284 31.3843 2.1989C31.5777 2.00458 31.8163 1.85608 32.0331 1.68742C32.0494 1.67642 32.0675 1.66542 32.0837 1.65625C32.1416 1.62142 32.2012 1.58659 32.259 1.54992C32.2753 1.54076 32.2916 1.52976 32.3078 1.52059C32.6386 1.39593 32.9711 1.27127 33.3018 1.1466C33.4627 1.26393 33.9777 1.26943 34.1151 1.1466C34.1548 1.11177 34.1729 1.04944 34.2018 0.998108C34.4566 0.998108 34.7133 0.998108 34.9681 0.998108C35.0169 1.01277 35.0639 1.02744 35.1127 1.04394C35.1976 1.06227 35.2843 1.08061 35.3693 1.09894C35.55 1.14477 35.7307 1.1906 35.9114 1.23643C36.0307 1.28227 36.1518 1.32993 36.2711 1.37576C36.3307 1.40693 36.3904 1.43626 36.4518 1.46743C36.4789 1.48026 36.506 1.49309 36.5349 1.50593C36.5548 1.51326 36.5729 1.52059 36.5928 1.52609C36.6072 1.53709 36.6235 1.54626 36.638 1.55726C36.6542 1.56826 36.6705 1.57926 36.6867 1.59026C36.7301 1.61226 36.7753 1.63242 36.8187 1.65442C36.8223 1.66725 36.8295 1.67642 36.8422 1.68009C36.8783 1.70942 36.9163 1.73875 36.9524 1.76992C37.0283 1.82125 37.1042 1.87441 37.1783 1.92575C37.1837 1.94041 37.1946 1.94958 37.2108 1.95508C37.2271 1.97158 37.2452 1.98808 37.2614 2.00458C37.3374 2.07057 37.4151 2.13657 37.491 2.20257C37.4982 2.21724 37.509 2.2264 37.5235 2.23007C37.5578 2.26307 37.5922 2.29607 37.6247 2.32907C37.659 2.3694 37.6898 2.41156 37.7259 2.44823C43.0681 7.86556 48.412 13.2829 53.7542 18.7002C57.3452 22.3411 60.9361 25.9802 64.5217 29.6266C65.7506 30.8768 66.9596 32.1473 68.1777 33.4086C68.2211 33.4709 68.2626 33.5333 68.306 33.5956C68.3675 33.7019 68.4289 33.8064 68.4904 33.9128C68.5355 34.0063 68.5825 34.0979 68.6277 34.1914L68.7036 34.3747C68.738 34.4646 68.7741 34.5544 68.8084 34.6442C68.8717 34.9486 68.9349 35.2529 68.9982 35.5572C68.9928 35.922 68.9873 36.2868 68.9819 36.6517C68.9747 36.6828 68.9657 36.714 68.9584 36.747C68.8717 37.3043 68.7271 37.8415 68.4289 38.3236C68.2681 38.5839 68.0819 38.8259 67.9084 39.0771C67.8578 39.1358 67.8072 39.1944 67.7566 39.2531C67.7331 39.2714 67.7078 39.2879 67.6861 39.3099C60.6235 46.4744 53.5735 53.6498 46.4946 60.7978C43.3536 63.9712 40.3066 67.2417 37.0337 70.2813C37.0048 70.2996 36.9759 70.3198 36.947 70.3381C36.9181 70.3565 36.8892 70.373 36.8602 70.3913C36.6795 70.483 36.4988 70.5746 36.3199 70.6681L35.8735 70.8331C35.6169 70.8863 35.3602 70.9394 35.1036 70.9944C35.0151 70.9963 34.9265 71.0018 34.838 70.9999C34.5813 70.9999 34.3247 70.9963 34.0681 70.9926C33.7898 70.9303 33.4988 70.8991 33.2349 70.8001C32.8608 70.659 32.503 70.4665 32.1398 70.296L31.95 70.164C31.8018 70.0265 31.6482 69.8926 31.5036 69.7497C30.1645 68.4187 28.8181 67.0951 27.4934 65.7494C23.4596 61.6557 19.4386 57.5492 15.4066 53.4537C10.8325 48.8063 6.2494 44.1663 1.6753 39.5207C1.36084 39.2018 1.03373 38.8809 0.787952 38.5088C0.430121 37.9698 0.0903614 37.4033 0.126506 36.7048C0.187952 36.6645 0.3 36.6297 0.301807 36.5838C0.307229 36.5032 0.249398 36.4188 0.218675 36.3345C0.198795 36.34 0.180723 36.3455 0.160843 36.3492C0.153614 36.3895 0.144578 36.4298 0.137349 36.4702C0.135542 36.4848 0.133735 36.5013 0.131928 36.516C0.0885542 36.516 0.0451807 36.516 0 36.516L0.00361446 36.5178Z" fill="#3430FA"/>
</svg>