<svg width="567" height="567" viewBox="0 0 567 567" fill="none"
  xmlns="http://www.w3.org/2000/svg">
  <path d="M285 79.7C345.1 79.7 405.3 79.7 465.4 79.7C464.6 90.5 463.8 101.2 463 112C462.2 123.4 461.4 134.9 460.6 146.3C459.8 157.3 459 168.4 458.2 179.4C457.4 190.6 456.6 201.7 455.8 212.9C455 224.1 454.2 235.2 453.4 246.4C452.6 258.2 451.8 270.1 451 281.9C450.2 293.2 449.4 304.5 448.6 315.8C447.5 330.4 446.5 345 445.4 359.6C444.6 370.6 443.7 381.7 443 392.7C442.1 406.8 441.3 420.9 440.6 435C440.5 437.4 439.8 438.4 437.5 439.1C420.8 444.5 404.1 450.1 387.5 455.6C362.8 463.7 338.1 471.7 313.5 479.9C304.4 482.9 295.5 486.2 286.5 489.4C286 489.4 285.4 489.4 284.9 489.4C284.9 468.4 284.9 447.4 284.9 426.3C286.2 426 287.5 425.8 288.7 425.4C296.9 422.7 305.1 420.1 313.3 417.3C335.5 409.9 357.8 402.5 380 395C381.2 394.6 383.1 393.6 383.1 392.8C384.1 381.9 384.8 371 385.6 360.1C385.9 355.1 386 350.1 386.4 345.1C387.4 332.5 388.6 319.9 389.5 307.3C390.2 297.8 390.5 288.3 391.2 278.8C391.5 274 392.3 269.1 392.7 264.3C393.1 259.1 393.2 253.9 393.5 248.5C380.9 248.5 368.8 248.5 356.7 248.5C332.8 248.5 308.8 248.4 284.9 248.4C284.9 228.5 284.9 208.6 284.9 188.7C286.5 188.7 288.1 188.6 289.7 188.6C324.3 188.6 358.8 188.6 393.4 188.6C394.9 188.6 396.5 188.6 398 188.6C399 172.3 400.1 156.6 401.1 140.6C399.5 140.6 398.1 140.6 396.6 140.6C373.2 140.6 349.8 140.6 326.4 140.6C312.6 140.6 298.8 140.5 284.9 140.5C285 120.2 285 99.9 285 79.7Z" fill="#3430FA"/>
  <path d="M285 426.3C285 447.3 285 468.3 285 489.4C284.5 489.4 283.9 489.4 283.4 489.4C275.8 486.8 268.3 484.1 260.7 481.6C241.2 475.1 221.7 468.7 202.2 462.3C180.7 455.3 159.2 448.3 137.7 441.2C129.8 438.6 129.8 438.5 129.4 429.9C129.3 428.3 128.7 426.8 128.6 425.2C127.8 413.9 127 402.6 126.2 391.3C125.4 380 124.6 368.7 123.8 357.3C123 346 122.2 334.7 121.4 323.4C120.6 312.5 119.8 301.6 119 290.7C118.2 279.3 117.4 267.8 116.6 256.4C115.8 244.9 115 233.5 114.2 222C113.4 211.1 112.6 200.2 111.8 189.3C111 178 110.1 166.7 109.4 155.4C108.8 145.8 108.3 136.1 107.8 126.5C107.6 122.4 107.3 118.3 107 114.3C106.2 102.9 105.4 91.4 104.6 80C164.7 80 224.9 80 285 80C285 100.2 285 120.4 285 140.7L285.1 141C284.3 140.9 283.5 140.9 282.7 140.9C246 140.9 209.3 140.9 172.6 140.9C171.6 140.9 170.5 141 168.9 141.1C169.3 146.3 169.7 151.3 170.1 156.3C170.9 167.4 171.7 178.4 172.5 189.5C173.3 201.1 174.1 212.7 174.9 224.2C175.7 235.6 176.6 247.1 177.3 258.5C177.9 267.9 178.3 277.2 178.9 286.6C179.1 290 179.7 293.3 180.1 296.9C191.9 296.9 203.6 296.9 215.3 296.9C238.6 296.9 261.8 296.8 285.1 296.8L285 297.1C285 323.4 285 349.7 285 376L285.1 376.3C268.2 370.9 251.3 365.4 234.5 359.9C233.6 359.6 232.6 358.1 232.5 357.1C231.9 353.4 231.6 349.6 231.2 345.9C215.4 345.9 199.7 345.9 183.4 345.9C183.8 350.1 184.2 353.9 184.5 357.9C185.1 368.1 185.5 378.2 186.1 388.4C186.3 392 187.1 394.8 191.4 396.2C218.1 404.8 244.7 413.7 271.3 422.5C275.8 424 280.5 425.1 285.1 426.4L285 426.3Z" fill="#6B6BF9"/>
  <path d="M285 248.4C308.9 248.4 332.9 248.5 356.8 248.5C368.9 248.5 381 248.5 393.6 248.5C393.3 253.9 393.2 259.1 392.8 264.3C392.4 269.1 391.6 274 391.3 278.8C390.7 288.3 390.3 297.8 389.6 307.3C388.7 319.9 387.5 332.5 386.5 345.1C386.1 350.1 386 355.1 385.7 360.1C385 371 384.2 381.9 383.2 392.8C383.1 393.6 381.3 394.6 380.1 395C357.9 402.5 335.7 409.9 313.4 417.3C305.2 420 297 422.7 288.8 425.4C287.6 425.8 286.3 426 285 426.3L285.1 426C285.1 409.3 285.1 392.7 285.1 376L285 375.7C301.9 370.2 318.8 364.6 335.6 359C336.5 358.7 337.5 357.2 337.6 356.3C338.3 347.3 338.7 338.4 339.3 329.4C339.7 324.4 340.4 319.5 340.8 314.5C341.2 308.6 341.4 302.7 341.7 296.8C322.4 296.8 303.7 296.8 285 296.8L285.1 296.5C285.1 280.6 285.1 264.7 285.1 248.8L285 248.4Z" fill="#E2E2E7"/>
  <path d="M285 140.4C298.8 140.4 312.6 140.5 326.5 140.5C349.9 140.5 373.3 140.5 396.7 140.5C398.1 140.5 399.6 140.5 401.2 140.5C400.2 156.5 399.2 172.2 398.1 188.5C396.6 188.5 395 188.5 393.5 188.5C358.9 188.5 324.4 188.5 289.8 188.5C288.2 188.5 286.6 188.6 285 188.6L285.1 188.3C285.1 172.4 285.1 156.5 285.1 140.6L285 140.4Z" fill="#E2E2E7"/>
  <path d="M285 188.7C285 208.6 285 228.5 285 248.4L285.1 248.7C265 248.7 244.8 248.7 224.6 248.7C223.1 228.3 221.7 208.6 220.2 188.5C222.5 188.5 224.1 188.5 225.7 188.5C245.5 188.4 265.3 188.4 285.1 188.3L285 188.7Z" fill="#6B6BF9"/>
  <path d="M285 188.4C265.2 188.5 245.4 188.5 225.6 188.6C224 188.6 222.4 188.6 220.1 188.6C221.6 208.6 223 228.4 224.5 248.8C244.7 248.8 264.8 248.8 285 248.8C285 264.7 285 280.6 285 296.5C261.7 296.6 238.5 296.6 215.2 296.6C203.5 296.6 191.8 296.6 180 296.6C179.6 293 179 289.7 178.8 286.3C178.2 276.9 177.8 267.6 177.2 258.2C176.5 246.7 175.6 235.3 174.8 223.9C174 212.3 173.2 200.7 172.4 189.2C171.6 178.1 170.8 167.1 170 156C169.6 151 169.2 146.1 168.8 140.8C170.4 140.7 171.4 140.6 172.5 140.6C209.2 140.6 245.9 140.6 282.6 140.6C283.4 140.6 284.2 140.7 285 140.7C285 156.6 285 172.5 285 188.4Z" fill="#ECECF1"/>
  <path d="M285.1 376C285.1 392.7 285.1 409.3 285.1 426C280.5 424.7 275.8 423.6 271.3 422.1C244.7 413.3 218.1 404.4 191.4 395.8C187.1 394.4 186.3 391.6 186.1 388C185.5 377.8 185.1 367.7 184.5 357.5C184.3 353.6 183.8 349.7 183.4 345.5C199.7 345.5 215.3 345.5 231.2 345.5C231.6 349.2 231.9 353 232.5 356.7C232.7 357.8 233.6 359.2 234.5 359.5C251.3 365.1 268.2 370.5 285.1 376Z" fill="#ECECF1"/>
  <path d="M285 296.7C303.7 296.7 322.5 296.7 341.7 296.7C341.4 302.7 341.2 308.6 340.8 314.4C340.4 319.4 339.6 324.3 339.3 329.3C338.7 338.3 338.3 347.2 337.6 356.2C337.5 357.2 336.5 358.6 335.6 358.9C318.7 364.6 301.9 370.1 285 375.6C285 349.3 285 323 285 296.7Z" fill="#3430FA"/>
</svg>