<svg width="54" height="63" viewBox="0 0 54 63" fill="none" xmlns="http://www.w3.org/2000/svg"> <g clip-path="url(#clip0_211_130)"> <path d="M5.01256 56.6439L0 0L54 0.0216795L49.0297 56.6008L26.9579 63.0003L5.01256 56.6441V56.6439ZM44.965 53.5523L49.1561 5.03745H27.0424L27.2108 58.5464L44.965 53.5523ZM24.9781 12.1503H19.6075L19.5444 41.1857L9.11922 38.267L9.14034 44.9042L24.9781 49.293V12.1503Z" fill="#3430FA"/> <path opacity="0.99" d="M23.2091 48.7525C22.5141 48.5363 19.081 47.5851 15.5851 46.6121L9.24573 44.8608V41.5963C9.24573 38.3966 9.24573 38.3318 9.56153 38.4399C9.72999 38.5047 12.0467 39.1533 14.7003 39.9101L19.5233 41.2721L19.5655 26.787L19.6078 12.3018H24.873V30.7218C24.873 45.3585 24.8308 49.1418 24.6835 49.1418C24.5781 49.1201 23.9043 48.9472 23.2093 48.7525H23.2091Z" fill="#3430FA" fill-opacity="0.45"/> <path opacity="0.99" d="M9.14038 44.9042L9.11926 38.267C9.11926 38.267 15.7744 40.1912 19.5444 41.1857L19.6075 12.172H24.9781V49.2933L9.14038 44.9044V44.9042Z" fill="#3430FA" fill-opacity="0.45"/> <path d="M27.0421 5.01575H49.1559L44.9648 53.5306L27.0419 58.5247V5.01575H27.0421ZM43.8275 45.4016L45.2808 27.2627L34.5398 28.4951V18.8094L45.9969 18.7661L46.4603 12.1503L29.1692 12.2368L29.4008 36.3211L39.8471 34.4834L39.6998 39.8451L29.1692 42.7206L29.2746 49.293L43.8275 45.4016Z" fill="#3430FA"/> </g> <defs> <clipPath id="clip0_211_130"> <rect width="54" height="63" fill="white"/> </clipPath> </defs> </svg>