<svg width="60" height="60" viewBox="0 0 60 60" fill="none"
  xmlns="http://www.w3.org/2000/svg">
  <g clip-path="url(#clip0_202_21)">
    <path d="M28.1713 0C29.4031 0 30.6349 0 31.8572 0C32.6189 0.0846262 33.3805 0.169252 34.1421 0.263282C37.8751 0.752233 41.3824 1.9464 44.6734 3.78937C48.2277 5.77339 51.246 8.3874 53.7378 11.6032C56.4271 15.0823 58.3076 18.9563 59.2479 23.2534C59.5958 24.8425 59.7557 26.4786 59.9908 28.0959V31.8289C59.7745 33.3615 59.6428 34.913 59.3137 36.4269C58.3264 41.0343 56.3236 45.1716 53.3523 48.8387C49.5065 53.5778 44.664 56.8594 38.8436 58.6742C34.6217 59.9812 30.3058 60.3103 25.924 59.7179C22.1722 59.2102 18.6461 58.0348 15.3457 56.1824C11.4905 54.0197 8.26532 51.1425 5.67011 47.5599C3.6767 44.8143 2.19104 41.8054 1.23194 38.552C0.0189621 34.3865 -0.300737 30.1646 0.291647 25.8674C0.996865 20.7334 2.91506 16.0978 6.01802 11.9605C8.98934 8.00188 12.7223 4.96474 17.1887 2.84908C19.3043 1.84297 21.5046 1.06253 23.8177 0.639398C25.2564 0.376117 26.7138 0.206864 28.1713 0ZM55.5244 29.9671C55.5244 15.9191 44.128 4.48519 30.0989 4.47579C15.9945 4.46638 4.51356 15.8439 4.51356 29.8543C4.51356 44.0338 15.8629 55.4866 29.9296 55.496C44.128 55.496 55.5338 44.1279 55.5338 29.9765L55.5244 29.9671Z" fill="#3430FA"/>
    <path d="M29.5815 8.5285C41.4104 8.32164 51.227 17.7057 51.4809 29.403C51.7442 41.5327 42.2848 50.7758 31.4057 51.4152C18.6083 52.1674 9.25241 42.2003 8.59421 31.4434C7.80436 18.6648 17.9031 8.68835 29.5909 8.5285H29.5815ZM30.0234 13.0137C20.7146 13.0137 13.0512 20.5924 13.0418 29.8355C13.023 39.3042 20.5829 46.9582 29.9576 46.9582C39.2947 46.9582 46.9863 39.3889 46.9863 30.1834C46.9863 20.6395 39.4734 13.0231 30.0234 13.0137Z" fill="#3430FA"/>
    <path d="M42.9337 29.9859C42.9525 37.1227 37.1791 42.8867 29.9953 42.9055C22.8867 42.9243 17.0851 37.1227 17.0851 30.0047C17.0851 22.8397 22.8303 17.0851 30.0047 17.0569C37.1321 17.0287 42.9243 22.8209 42.9337 29.9859ZM29.9859 38.4109C34.6309 38.4109 38.4297 34.6497 38.4391 30.0423C38.4391 25.3502 34.6873 21.5609 30.0329 21.5515C25.3785 21.5515 21.5797 25.322 21.5797 29.9483C21.5797 34.6215 25.3408 38.4109 29.9859 38.4109Z" fill="#3430FA"/>
    <path d="M34.3865 30.0987C34.2642 32.5905 32.2614 34.4804 29.8731 34.3582C27.4095 34.236 25.5195 32.2331 25.6324 29.8636C25.7452 27.3812 27.7574 25.4819 30.1552 25.6041C32.6187 25.7263 34.5087 27.7386 34.3959 30.0987H34.3865Z" fill="#3430FA"/>
  </g>
  <defs>
    <clipPath id="clip0_202_21">
      <rect width="60" height="60" fill="white"/>
    </clipPath>
  </defs>
</svg>
