<svg width="354" height="353" viewBox="0 0 354 353" fill="none"
  xmlns="http://www.w3.org/2000/svg">
  <path d="M301.952 220.684C307.895 263.798 302.836 308.353 304.421 351.985H48.9359C56.8998 317.733 29.7677 224.318 65.8389 212.451C138.53 212.034 211.322 212.43 284.044 212.42C291.114 212.471 297.757 214.572 301.942 220.684H301.952ZM200.992 308.993C198.909 274.477 145.305 280.852 152.832 315.398C159.75 344.371 201.053 336.849 200.992 308.993ZM217.63 277.482C246.652 249.159 250.756 250.347 219.012 221.739C213.902 220.409 212.033 226.115 207.34 229.769C214.238 236.49 221.013 243.109 227.992 249.91C221.805 256.072 215.294 262.559 209.057 268.762C211.678 271.432 214.329 274.122 217.63 277.482ZM123.862 248.661C130.932 241.647 137.433 235.19 143.578 229.089C140.846 226.379 138.093 223.638 135.188 220.755C101.565 254.905 102.103 242.916 135.31 277.025C138.347 273.929 141.069 271.168 143.771 268.417C137.514 262.204 131.074 255.818 123.872 248.661H123.862ZM199.498 228.277C196.055 226.937 190.397 218.156 187.583 223.272C176.104 238.753 164.778 253.991 153.391 269.604C156.875 272.152 159.913 274.386 163.072 276.69C175.363 260.346 187.329 244.449 199.498 228.287V228.277Z" fill="#3430FA"/>
  <path d="M182.951 54.7956C167.338 56.8462 151.441 56.5518 138.621 66.9369C126.797 75.5049 114.09 82.8953 101.778 90.773C96.4147 95.7574 89.9237 72.3579 87.5772 68.6322C86.734 66.4293 87.6381 63.3635 88.2882 60.8358C93.5399 45.4763 85.251 27.8734 69.4958 22.5336C74.6968 20.3003 79.7859 18.7674 84.2352 16.4731C89.1009 13.9656 94.1393 11.8135 99.4113 10.3415C112.383 6.72752 131.846 2.5755 139.993 1.51973C171.686 1.9461 204.354 -3.97231 235.234 5.02204C262.742 19.6912 270.808 54.8971 255.317 81.1797C250.451 63.6579 240.994 48.1564 230.135 33.6395" fill="#3430FA"/>
  <path d="M112.779 152.211C111.408 141.846 110.057 131.897 109.529 121.35H121.993C121.779 134.963 119.169 155.693 137.799 157.52C157.16 159.287 171.95 155.652 170.609 133.552H182.799C180.98 144.516 187.39 157.723 200.027 157.632C203.927 157.287 207.879 157.5 211.8 157.611C221.115 158.312 225.676 152.749 230.582 145.978C230.156 145.541 229.729 145.105 229.302 144.668C231.943 136.994 231.618 129.441 231.446 121.33H242.498C244.56 133.024 240.791 144.445 238.77 155.865C236.128 171.519 228.998 185.356 221.379 199.091C192.347 201.994 161.741 199.203 131.104 200.147C125.152 184.392 116.304 168.92 112.8 152.201L112.779 152.211Z" fill="#3430FA"/>
  <path d="M224.559 45.9841C241.827 69.81 243.91 79.7687 243.93 108.975C225.92 108.975 208.895 108.975 191.047 108.975C182.342 108.224 182.565 114.081 182.768 120.964H170.975C170.711 111.594 169.096 108.437 158.988 108.884C142.543 109.239 126.239 108.934 109.773 108.975C110.118 105.473 108.513 101.473 111.469 99.1076C121.038 91.8086 160.604 67.9116 164.809 67.9015C174.307 67.2112 183.652 66.0437 192.947 63.922C194.47 63.6987 195.791 62.0541 197.203 61.0694C197.508 61.4146 197.812 61.7699 198.117 62.115L198.747 61.0694C207.635 56.8159 215.752 51.7299 223.685 45.8521L224.569 45.9942L224.559 45.9841Z" fill="#3430FA"/>
  <path d="M0.279231 351.873C-0.360725 329.479 -1.26479 303.592 14.724 286.162C20.7375 279.198 27.5028 271.787 36.5841 269.219V351.873H0.279231Z" fill="#3430FA"/>
  <path d="M353.119 352.005H316.854V268.752C351.3 287.075 354.449 316.424 353.119 352.005Z" fill="#3430FA"/>
  <path d="M219.236 121.36C219.307 143.085 222.974 147.5 198.067 145.298C192.175 143.44 195.913 127.126 194.948 121.36H219.236Z" fill="#3430FA"/>
  <path d="M134.111 121.279H158.43C157.932 140.049 163.255 147.683 139.617 145.379C129.967 144.313 135.473 128.425 134.111 121.279Z" fill="#3430FA"/>
  <path d="M253.062 148.14C253.915 138.821 254.718 130.111 255.52 121.35C265.983 119.827 272.027 132.598 263.829 139.308C260.345 142.069 256.952 144.942 253.062 148.13V148.14Z" fill="#3430FA"/>
  <path d="M85.312 129.491C86.5309 123.604 90.5535 120.873 97.2375 121.35C97.9384 130.903 98.7307 138.455 100.092 148.475C93.8752 142.425 84.1743 139.268 85.312 129.491Z" fill="#3430FA"/>
  <path d="M229.282 144.688C229.709 145.125 230.135 145.561 230.562 145.998C230.145 146.323 229.729 146.658 229.312 146.983C229.312 146.221 229.292 145.46 229.282 144.699V144.688Z" fill="#3430FA"/>
  <path d="M198.727 48.8061C199.468 48.3391 200.21 47.8721 200.941 47.4052C200.199 47.8721 199.458 48.3391 198.727 48.8061Z" fill="#3430FA"/>
  <path d="M191.89 51.8516L193.444 51.3034C192.926 51.4861 192.408 51.6689 191.89 51.8516Z" fill="#3430FA"/>
  <path d="M301.953 220.684C301.506 220.237 301.059 219.79 300.622 219.354C301.069 219.8 301.516 220.247 301.953 220.684Z" fill="#3430FA"/>
  <path d="M112.779 152.211C112.8 152.444 112.81 152.678 112.81 152.911C112.617 152.871 112.414 152.84 112.221 152.799C112.404 152.607 112.597 152.414 112.779 152.211Z" fill="#3430FA"/>
  <path d="M115.065 161.337C115.085 161.56 115.096 161.794 115.096 162.017C114.903 161.987 114.71 161.946 114.506 161.916C114.689 161.723 114.882 161.53 115.065 161.337Z" fill="#3430FA"/>
  <path d="M209.453 55.7498C209.22 55.7701 208.986 55.7803 208.752 55.7803C208.793 55.5874 208.824 55.3843 208.864 55.1915C209.057 55.3742 209.26 55.5671 209.453 55.7498Z" fill="#3430FA"/>
  <path d="M302.166 222.267C302.166 221.973 302.166 221.679 302.166 221.374C302.359 221.475 302.542 221.577 302.735 221.689C302.542 221.882 302.359 222.074 302.166 222.267Z" fill="#3430FA"/>
  <path d="M235.742 4.84948C235.499 4.75812 235.336 4.59569 235.245 4.35205C235.407 4.51448 235.58 4.68705 235.742 4.84948Z" fill="#3430FA"/>
  <path d="M234.381 4.13887C234.158 4.12872 233.944 4.11856 233.721 4.11856C233.883 3.94599 234.046 3.77341 234.198 3.60083L234.381 4.13887Z" fill="#3430FA"/>
  <path d="M164.514 309.602C164.057 293.613 188.731 294.456 188.711 309.074C189.29 324.545 164.748 326.504 164.514 309.602Z" fill="#3430FA"/>
</svg>
