<svg width="68" height="61" viewBox="0 0 68 61" fill="none"
  xmlns="http://www.w3.org/2000/svg">
  <g clip-path="url(#clip0_211_82)">
    <path d="M55.9083 19.7706C55.1839 19.5216 54.454 19.2899 53.7197 19.0747C53.8412 18.5757 53.9536 18.074 54.0569 17.5696C55.7142 9.45969 54.6308 2.92688 50.9318 0.776029C47.3905 -1.28725 41.5826 0.862683 35.723 6.00538C35.1473 6.51254 34.5825 7.0352 34.0304 7.57337C33.6623 7.2158 33.2842 6.86645 32.8971 6.5244C26.7556 1.02596 20.6005 -1.28999 16.9059 0.868156C13.3646 2.936 12.312 9.0775 13.8034 16.7642C13.953 17.524 14.1199 18.2811 14.3066 19.0345C13.4354 19.2835 12.594 19.5508 11.7889 19.8327C4.59843 22.362 0 26.3281 0 30.4419C0 34.5557 4.9357 38.9531 12.4335 41.5373C13.0419 41.7452 13.6557 41.9386 14.2749 42.1174C14.0736 42.9237 13.8959 43.7401 13.7409 44.5647C12.3247 52.1182 13.429 58.1147 16.964 60.1697C20.615 62.2923 26.7383 60.1114 32.7085 54.8519C33.1809 54.436 33.6532 53.9963 34.1256 53.5339C34.7221 54.114 35.3359 54.6777 35.9669 55.2241C41.7467 60.2381 47.4539 62.2631 50.9825 60.2026C54.6299 58.0736 55.8158 51.6311 54.2763 43.7939C54.1585 43.1955 54.0225 42.5844 53.8683 41.9614C54.299 41.8328 54.7206 41.7005 55.1331 41.5637C62.9247 38.9595 68 34.75 68 30.4464C67.9973 26.3135 63.2511 22.321 55.9074 19.7715L55.9083 19.7706ZM37.6342 8.21461C42.6533 3.80893 47.3451 2.07037 49.4839 3.31363C51.7604 4.63807 52.6462 9.97688 51.2146 16.9785C51.1204 17.4346 51.0179 17.8889 50.9082 18.3422C47.9127 17.6572 44.8755 17.1728 41.8165 16.8937C40.0649 14.3552 38.1447 11.9389 36.0694 9.66037C36.5771 9.16416 37.0975 8.68254 37.6306 8.2137H37.6333L37.6342 8.21461ZM20.0782 33.9555C20.6929 35.1522 21.3357 36.3353 22.0066 37.5028C22.6893 38.6941 23.401 39.868 24.1418 41.0246C22.0366 40.7948 19.945 40.4554 17.8742 40.0085C18.4753 38.0528 19.2142 36.0224 20.0782 33.9555ZM20.0782 27.0669C19.2278 25.0447 18.5089 23.0553 17.9177 21.1334C19.8588 20.6956 21.9269 20.338 24.0828 20.0671C23.3602 21.2018 22.6649 22.3529 21.9976 23.5205C21.3303 24.688 20.6884 25.8702 20.0737 27.0669H20.0782ZM21.6222 30.5121C22.518 28.634 23.4817 26.7914 24.5153 24.9854C25.5479 23.1802 26.6468 21.4161 27.8118 19.6931C29.8345 19.5389 31.9089 19.4578 34.0041 19.4578C36.0993 19.4578 38.1855 19.5389 40.2072 19.694C41.3605 21.4125 42.453 23.1702 43.4838 24.9671C44.5146 26.7641 45.492 28.5975 46.4149 30.4683C45.5047 32.3537 44.5301 34.2036 43.4911 36.0178C42.4611 37.823 41.375 39.5926 40.2326 41.3256C38.2136 41.4679 36.1247 41.5464 33.9995 41.5464C31.8744 41.5464 29.8245 41.4798 27.8426 41.3494C26.6685 39.6208 25.5606 37.8494 24.5189 36.0343C23.4772 34.2191 22.5098 32.3784 21.6177 30.5103H21.6222V30.5121ZM46.0051 37.4828C46.6897 36.2878 47.347 35.0765 47.9771 33.8497C48.8402 35.8199 49.6027 37.833 50.2609 39.8817C48.1666 40.356 46.0487 40.72 43.9163 40.9717C44.6361 39.8233 45.3324 38.6603 46.0061 37.4828H46.0051ZM47.949 27.0687C47.3216 25.8665 46.6697 24.6789 45.9925 23.5059C45.3315 22.3484 44.6425 21.2054 43.9253 20.0771C46.094 20.3535 48.1756 20.7211 50.1258 21.1699C49.4984 23.172 48.7722 25.1405 47.9481 27.0687H47.949ZM34.0322 11.7547C35.4465 13.3099 36.782 14.9353 38.0341 16.6265C35.3568 16.4978 32.6777 16.4978 29.9959 16.6265C31.3177 14.8678 32.6704 13.236 34.0322 11.7547ZM18.3674 3.40028C20.6422 2.07219 25.6731 3.97038 30.975 8.71173C31.3132 9.01548 31.655 9.3329 31.995 9.66219C29.9088 11.9398 27.975 14.3543 26.2071 16.8892C23.1544 17.1655 20.1236 17.6417 17.1326 18.3139C16.9594 17.6143 16.8035 16.9101 16.6648 16.2014C15.3828 9.61293 16.2314 4.64537 18.3674 3.39846V3.40028ZM15.051 39.2952C14.4843 39.1328 13.9249 38.9568 13.3719 38.7661C10.0573 37.626 7.31832 36.1382 5.43888 34.5174C3.75617 33.0652 2.90303 31.6158 2.90303 30.441C2.90303 27.9453 6.59483 24.761 12.7508 22.6019C13.5242 22.331 14.3048 22.0838 15.0909 21.8595C16.0057 24.8157 17.1126 27.7082 18.4055 30.5176C17.0972 33.3662 15.9757 36.2979 15.0492 39.2943L15.051 39.2952ZM30.7937 52.6454C28.1545 54.9714 25.5108 56.6206 23.1807 57.4515C21.0873 58.1968 19.42 58.2186 18.4128 57.6321C16.2677 56.3852 15.3755 51.5691 16.5922 45.1101C16.7364 44.3503 16.9023 43.5896 17.0882 42.8298C20.1091 43.4847 23.1708 43.9316 26.2524 44.1679C28.0385 46.7164 29.9877 49.1446 32.0884 51.4368C31.6659 51.8546 31.2343 52.2559 30.7937 52.6454ZM34.1111 49.3361C32.7339 47.8384 31.3603 46.181 30.0194 44.3996C31.3214 44.4507 32.6478 44.4762 33.9968 44.4762C35.3459 44.4762 36.7539 44.4461 38.1048 44.385C36.8572 46.1026 35.5245 47.7554 34.1102 49.3361H34.1111ZM51.7505 53.4107C51.3452 55.6117 50.531 57.0794 49.5238 57.6668C47.3805 58.9183 42.7975 57.2919 37.8564 53.003C37.2897 52.5122 36.7231 51.9868 36.1464 51.435C38.2063 49.1336 40.1102 46.6964 41.8455 44.1378C44.9435 43.8733 48.0206 43.3953 51.0533 42.7057C51.192 43.2703 51.3153 43.8231 51.4214 44.3649C52.1031 47.8284 52.2001 50.9607 51.7505 53.4107ZM54.2156 38.7817C53.8448 38.9057 53.4622 39.0252 53.0741 39.142C52.1231 36.172 50.9726 33.2695 49.6308 30.4565C50.9227 27.6808 52.0279 24.8212 52.94 21.8969C53.6353 22.1003 54.3108 22.3146 54.9617 22.5408C61.2547 24.7245 65.0933 27.9572 65.0933 30.441C65.0933 33.0917 60.9473 36.5323 54.2165 38.7817H54.2156Z" fill="#3430FA"/>
    <path d="M33.9986 36.5644C37.3631 36.5754 40.0993 33.8408 40.1102 30.4558C40.1211 27.0708 37.403 24.3179 34.0385 24.307C30.674 24.296 27.9378 27.0307 27.9269 30.4156C27.9269 30.422 27.9269 30.4293 27.9269 30.4357C27.9196 33.8134 30.6359 36.5571 33.9932 36.5644C33.995 36.5644 33.9968 36.5644 33.9986 36.5644Z" fill="#3430FA"/>
  </g>
  <defs>
    <clipPath id="clip0_211_82">
      <rect width="68" height="61" fill="white"/>
    </clipPath>
  </defs>
</svg>